/* XPM */
static char * TInputList_xpm[] = {
"24 24 5 1",
" 	c None",
".	c #800000",
"+	c #FFFF00",
"@	c #000000",
"#	c #FF0000",
"                        ",
"  ...                   ",
"  .  .                  ",
"  .   .                 ",
"  .  +.@                ",
"  . ++.@                ",
"  .....@      .         ",
"   @@@@@      ..        ",
"              .#.       ",
"  ...      ....##.      ",
"  .  .    .#######.     ",
"  .   .   .########.    ",
"  .  +.@  .#########.   ",
"  . ++.@  .########.    ",
"  .....@  .#######.     ",
"   @@@@@   ....##.      ",
"              .#.       ",
"  ...         ..        ",
"  .  .        .         ",
"  .   .                 ",
"  .  +.@                ",
"  . ++.@                ",
"  .....@                ",
"   @@@@@                "};
