/* XPM */
static char * TFileIn_xpm[] = {
"24 24 4 1",
" 	c None",
".	c #FFFFFF",
"+	c #FF0000",
"@	c #FFFF00",
"                        ",
"                        ",
"  ...........           ",
" .............          ",
" ..............         ",
" ...............        ",
" ................       ",
" ................+      ",
" ................++     ",
" ................+++    ",
" .............+++++++   ",
" ............+++++++++  ",
" ............++++++++++ ",
" ............+++++++++++",
" ............++++++++++ ",
" ............+++++++++  ",
" .............+++++++   ",
" ..............@.+++    ",
" ...........@.@.@++     ",
" ....@.@..@@.@.@.+      ",
" ..@.@.@.@@.@.@.@.      ",
"  ...............       ",
"                        ",
"                        "};
