/* XPM */
static char * TAudioOut_xpm[] = {
"24 24 6 1",
" 	c None",
".	c #000000",
"+	c #000080",
"@	c #800000",
"#	c #00FFFF",
"$	c #0000FF",
"                        ",
"                        ",
"                        ",
"                        ",
"         ..             ",
"        ++..   @ @ @    ",
"       +#.  .   @ @     ",
"      +#..  .           ",
"     +# .   .  @ @ @    ",
"  .++# #.+   .  @ @     ",
" .+ $ # ..+  .          ",
" . #$# #. .  . @ @ @    ",
" .##$ # ...  .  @ @     ",
" .$$.# #..+  .          ",
"  ...$# .+   . @ @ @    ",
"     .$#.   .   @ @     ",
"      .$..  .           ",
"       .$.  .  @ @ @    ",
"        .$..    @ @     ",
"         ..             ",
"                        ",
"                        ",
"                        ",
"                        "};
