/* XPM */
static char * TNULLOut_xpm[] = {
"24 24 5 1",
" 	c None",
".	c #000080",
"+	c #0000FF",
"@	c #00FFFF",
"#	c #000000",
"                        ",
"     .                  ",
"     ..                 ",
"     .+.                ",
"  ....++.               ",
" .+++++++.              ",
" .++++++++.             ",
" .+++++++++.   .....    ",
" .++++++++.  +.+++++.+  ",
" .+++++++.   ..+++++@.  ",
"  ....++.   ...+++++@.. ",
"     .+.    ...+++++@.# ",
"     ..     ....+++.... ",
"     .      .@+.....++. ",
"            .@++++++++. ",
"            .@++++++++# ",
"            ...+++++... ",
"            .@+.....++. ",
"            .@++++++++. ",
"            ...+++++... ",
"            .@+.....++. ",
"            +.@++++++.+ ",
"             +.+++++.+  ",
"               .....    "};
