/* XPM */
static char * TMemoryIn_xpm[] = {
"24 24 7 1",
" 	c None",
".	c #800000",
"+	c #FF0000",
"@	c #808000",
"#	c #800080",
"$	c #FFFF00",
"%	c #000000",
"                .       ",
"                ..      ",
"                .+.     ",
"             ....++.    ",
"            .+++++++.   ",
"            .++++++++.  ",
"            .+++++++++. ",
"     @# @$  .++++++++.  ",
"    @%%%    .+++++++.   ",
"   @%%%%% @$ ....++.    ",
"  @%%%%%%%      .+.     ",
" @%%%%%%%%% @$  ..      ",
" %%%%%% %%%%    .       ",
" $%%%%%% %%%% @$        ",
" @ %%%%%%%%%%%          ",
"   $%%%%%%%%%%% @$      ",
"   @ %%%%%%  %%%        ",
"     $%%%%%  %%%%       ",
"     @ %%%%%%%%%        ",
"       $%%%%%%%         ",
"       @ %%%%%          ",
"         $%%%           ",
"         @              ",
"                        "};
