/* XPM */
static char * TFixedResampler_xpm[] = {
"24 24 4 1",
" 	c None",
".	c #0000FF",
"+	c #FF0000",
"@	c #000000",
"                        ",
"                        ",
"                        ",
"                        ",
"                   . .  ",
"                   .. . ",
"                   .  . ",
"                   .  . ",
"    .....      +++      ",
"   ..         ++ ++     ",
"   ..        ++   ++    ",
" .......     ++   ++    ",
"   ..            ++     ",
"   ..    @@@    ++      ",
"   ..    @@@   ++       ",
"   ..    @@@  ++        ",
"   ..        ++         ",
" .......     +++++++    ",
"                        ",
"                        ",
"                        ",
"                        ",
"                        ",
"                        "};
