/* XPM */
static char * TMSConverter_xpm[] = {
"24 24 3 1",
" 	c None",
".	c #808000",
"+	c #FF0000",
"        .......         ",
"       .       .        ",
"       .  ...  .        ",
"       . ..... .        ",
"       . ..... .        ",
"       . ..... .        ",
"       .  ...  .        ",
"       .       .        ",
"       .       .        ",
"        .......         ",
"          + +           ",
"         ++ +           ",
"        + + + +         ",
"          + ++          ",
"  ....... + + .......   ",
" .       .   .       .  ",
" .  ...  .   .  ...  .  ",
" . ..... .   . ..... .  ",
" . ..... .   . ..... .  ",
" . ..... .   . ..... .  ",
" .  ...  .   .  ...  .  ",
" .       .   .       .  ",
" .       .   .       .  ",
"  .......     .......   "};
