/* XPM */
static char * TFileOut_xpm[] = {
"24 24 4 1",
" 	c None",
".	c #FFFFFF",
"+	c #0000FF",
"@	c #FFFF00",
"                        ",
"                        ",
"       ...........      ",
"      .............     ",
"      ..............    ",
"      ...............   ",
"      ................  ",
"    + ................. ",
"    ++................. ",
"    +++................ ",
" +++++++............... ",
"+++++++++.............. ",
"++++++++++...........@. ",
"+++++++++++............ ",
"++++++++++...........@. ",
"+++++++++...........@.. ",
" +++++++.............@. ",
"    +++............@@.. ",
"    ++............@@.@. ",
"    + .....@.@..@...@.. ",
"      ..@.@.@.@@.@.@.@. ",
"       ...............  ",
"                        ",
"                        "};
