/* XPM */
static char * TStreamIn_xpm[] = {
"24 24 8 1",
" 	c None",
".	c #800000",
"+	c #FF0000",
"@	c #0000FF",
"#	c #000080",
"$	c #00FFFF",
"%	c #008080",
"&	c #000000",
"                .       ",
"                ..      ",
"                .+.     ",
"             ....++.    ",
"            .+++++++.   ",
"            .++++++++.  ",
"            .+++++++++. ",
"     @# @$  .++++++++.  ",
"    @###    .+++++++.   ",
"   @##### @$ ....++.    ",
"  @#######      .+.     ",
" @####%#### @$  ..      ",
" &@####$####    .       ",
" $&@####$#### @$        ",
" & &@#########          ",
"   $&@####%#### @$      ",
"   & &@####$$###        ",
"     $&####$$####       ",
"     & &#######&        ",
"       $&#####&         ",
"       & &###&          ",
"         $&#&           ",
"         &              ",
"                        "};
