/* XPM */
static char * TCDIn_xpm[] = {
"24 24 7 1",
" 	c None",
".	c #800000",
"+	c #000000",
"@	c #00FFFF",
"#	c #00FF00",
"$	c #FF0000",
"%	c #FFFF00",
"                        ",
"                        ",
"                        ",
"                .       ",
"      +++++     ..      ",
"    ++@@###+    .$.     ",
"   +  @@#### ....$$.    ",
"  +   @@####.$$$$$$$.   ",
" +     @@##%.$$$$$$$$.  ",
" +     @@#%%.$$$$$$$$$. ",
"+      +++%%.$$$$$$$$.  ",
"+     +   + .$$$$$$$.   ",
"+     +   +  ....$$.    ",
"+     +   +     .$.     ",
"+    %%+++      ..      ",
" +  %%%#@@     +.       ",
" + %%%##@@     +        ",
"  +%%###@@@   +         ",
"   +%####@@  +          ",
"    ++###@@++           ",
"      +++++             ",
"                        ",
"                        ",
"                        "};
