/* XPM */
static char * TStereoBalance_xpm[] = {
"24 24 3 1",
" 	c None",
".	c #800000",
"+	c #000000",
"                        ",
"                        ",
"                        ",
"                        ",
"                        ",
"  .                  .  ",
"  ..                ..  ",
"  ...              ...  ",
"  ......        ......  ",
"  ......        ......  ",
"  ......        ......  ",
"  ......        ......  ",
"  ...              ...  ",
"  ..                ..  ",
"  .                  .  ",
"           ++           ",
"            ++          ",
"            ++          ",
"   +++++++  +++++++++   ",
"   +++++++  +++++++++   ",
"           +++          ",
"                        ",
"                        ",
"                        "};
