/* XPM */
static char * TStreamOut_xpm[] = {
"24 24 6 1",
" 	c None",
".	c #0000FF",
"+	c #000080",
"@	c #00FFFF",
"#	c #008080",
"$	c #000000",
"           .+ .@        ",
"          .+++          ",
"         .+++++ .@      ",
"        .+++++++        ",
"       .++++#++++ .@    ",
"       $.++++@++++      ",
"       @$.++++@++++ .@  ",
"       $ $.+++++++++    ",
"         @$.++++#++++ .@",
"         $ $.++++@@+++  ",
"    +      @$++++@@++++ ",
"    ++     $ $+++++++$  ",
"    +.+      @$+++++$   ",
" ++++..+     $ $+++$    ",
"+.......+      @$+$     ",
"+........+     $        ",
"+.........+             ",
"+........+              ",
"+.......+               ",
" ++++..+                ",
"    +.+                 ",
"    ++                  ",
"    +                   ",
"                        "};
