/* XPM */
static char * TBWFilter_xpm[] = {
"24 24 5 1",
" 	c None",
".	c #FFFF00",
"+	c #0000FF",
"@	c #FF0000",
"#	c #000000",
"      .                 ",
"    .         .         ",
"      ++   ++   ++      ",
"     +  + +  + +  +     ",
" ++++    +    +    ++++ ",
"   @                @   ",
"   @   ###          @   ",
"   @   #  #   +     @   ",
"   @   #  #   +     @   ",
"   @   ###    ++    @   ",
"   @   #  #         @   ",
" @@@@@ #  #       @@@@@ ",
"       ###              ",
" @@@@@      #   # @@@@@ ",
"   @        #   #   @   ",
"   @        # # #   @   ",
"   @  @@    # # #   @   ",
"   @  @     # # #   @   ",
"   @  @@     # #    @   ",
"   @                @   ",
"   @                @   ",
" ++++++++++++++++++++++ ",
"                        ",
"                        "};
