/* XPM */
static char * TAudioMixer_xpm[] = {
"24 24 5 1",
" 	c None",
".	c #0000FF",
"+	c #000080",
"@	c #800000",
"#	c #00FFFF",
"                        ",
"           .+           ",
"      @@@@@.+@@@@@      ",
"   @@@     .+     @@@   ",
"  @        .+       #@  ",
" @         .+      # #@ ",
" @         .+       # @ ",
" @@        .+      # @@ ",
" @#@@@     .+     @@@ @ ",
" @ #  @@@@@@@@@@@@ .  @ ",
" @#        .+         @ ",
" @ #       .+         @ ",
" @#        .+         @ ",
" @ # +++++ .+ +++++   @ ",
" @  +.....+.++++++++  @ ",
" @ +.......+++......+ @ ",
" @ +......+++.......+ @ ",
" @@ +++++++.++.....+ @@ ",
" @   +++++ .+ +++++   @ ",
" @                    @ ",
"  @                  @  ",
"   @@@            @@@   ",
"      @@@@@@@@@@@@      ",
"                        "};
