/* XPM */
static char * TCDPlayer_xpm[] = {
"24 24 7 1",
" 	c None",
".	c #000000",
"+	c #000080",
"@	c #00FFFF",
"#	c #0000FF",
"$	c #00FF00",
"%	c #FFFF00",
"                        ",
"                   ..   ",
"                  ++..  ",
"                 +@.  . ",
"                +@..  . ",
"               +@ .   . ",
"            .++@ @.+   .",
"      ......+ # @ ..+  .",
"    ..@@$$$. @#@ @. .  .",
"   .  @@$$$.@@# @ ...  .",
"  .   @@$$$.##.@ @..+  .",
" .     @@$$%...#@ .+   .",
" .     @@$%%%  .#@.   . ",
".      ...%%    .#..  . ",
".     .   .     ..#.  . ",
".     .   .     . .#..  ",
".     .   .     .  ..   ",
".    %%...      .       ",
" .  %%%$@@     .        ",
" . %%%$$@@     .        ",
"  .%%$$$@@@   .         ",
"   .%$$$$@@  .          ",
"    ..$$$@@..           ",
"      .....             "};
