/* XPM */
static char * TAudioIn_xpm[] = {
"24 24 6 1",
" 	c None",
".	c #0000FF",
"+	c #00FFFF",
"@	c #000080",
"#	c #000000",
"$	c #808000",
"                        ",
"                        ",
"                        ",
"                        ",
"            .+.+.@      ",
"          +.+...@.@     ",
"          ....@..@.@    ",
"         +.....@@.@@    ",
"         .....@..@.@    ",
"        +....@.@@.@@    ",
"        ....@.@..@.@    ",
"        +@.@.@.@@.@@    ",
"        . @.@.@.@@@     ",
"       #  $@@.@@@@@     ",
"      #  $$$@@@@@       ",
"     #  $$$@@@@         ",
"    #  $$$#             ",
"   #  $$##              ",
"  #  $$$#               ",
" #  $###                ",
" # $$###                ",
" #$$$####               ",
"  $## ###               ",
"      ###               "};
