/* XPM */
static char * TSampleConverter_xpm[] = {
"24 24 4 1",
" 	c None",
".	c #0000FF",
"+	c #000080",
"@	c #000000",
"                        ",
"........................",
" .             .        ",
" . +   + +   + . +   + +",
" .  + +   + +  .  + +   ",
" .   +     +   .   +    ",
" .  + +   + +  .  + +   ",
" . +   + +   + . +   + +",
" .             .        ",
"........................",
"          @  @          ",
"        @ @ @@@         ",
"         @@@ @ @        ",
"          @  @          ",
"........................",
" .       .       .      ",
" . +   + . +   + . +   +",
" .  + +  .  + +  .  + + ",
" .   +   .   +   .   +  ",
" .  + +  .  + +  .  + + ",
" . +   + . +   + . +   +",
" .       .       .      ",
"........................",
"                        "};
