/* XPM */
static char * TSINCFilter_xpm[] = {
"24 24 7 1",
" 	c None",
".	c #800000",
"+	c #000000",
"@	c #0000FF",
"#	c #008080",
"$	c #00FFFF",
"%	c #000080",
"                        ",
"     ... . . .   ...    ",
"    .    . .. . .       ",
"     ..  . .  . .       ",
"       . . .  . .       ",
"    ...  . .  .  ...    ",
"                        ",
"         +++++++        ",
"      +++@#@#@#@+++     ",
"     +@#@#@#@#@#@#$+    ",
"    +%#@#@#@#@#@#@$%+   ",
"    +%%#@#@#@#@#@$$%+   ",
"     ++++@#@#@#@++++    ",
"      +$@+++++++@@+     ",
"       %$@@@@@@@@+      ",
"        %$@@@@@@+       ",
"         %$@@@@+        ",
"          %@+++         ",
"          %$@@+         ",
"          %$@@+         ",
"          %$@@+         ",
"          %$@@+         ",
"           %%%          ",
"                        "};
