/* XPM */
static char * TRateConverter_xpm[] = {
"24 24 4 1",
" 	c None",
".	c #FF0000",
"+	c #000000",
"@	c #0000FF",
"                        ",
"                        ",
"                        ",
"..      ..      ..      ",
"  .    .  .    .  .    .",
"  .    .  .    .  .    .",
"   .  .    .  .    .  . ",
"   .  .    .  .    .  . ",
"    ..      ..      ..  ",
"                        ",
"         +  +           ",
"       + + +++          ",
"        +++ + +         ",
"         +  +           ",
"                        ",
"   @   @   @   @   @    ",
"   @   @   @   @   @    ",
"@ @ @ @ @ @ @ @ @ @ @ @ ",
"@ @ @ @ @ @ @ @ @ @ @ @ ",
" @   @   @   @   @   @  ",
" @   @   @   @   @   @  ",
"                        ",
"                        ",
"                        "};
