/* XPM */
static char *Pixmap[] = {
"16 16 16 2",
"00 c #080810",
"01 c #181821",
"02 c gray16",
"03 c #D6D6CE",
"04 c gray100",
"05 c gray100",
"06 c gray100",
"07 c gray100",
"08 c gray100",
"09 c gray100",
"10 c gray100",
"11 c gray100",
"12 c gray100",
"13 c gray100",
"14 c gray100",
"15 c gray100",
"03030303030303030303030303030303",
"03030303030303030303030303030303",
"03030303030303030303030303030303",
"03030000000003030300000000030303",
"03030001010203030300010102030303",
"03030001010203030300010102030303",
"03030001010203030300010102030303",
"03030001010203030300010102030303",
"03030001010203030300010102030303",
"03030001010203030300010102030303",
"03030001010203030300010102030303",
"03030001010203030300010102030303",
"03030202020203030302020202030303",
"03030303030303030303030303030303",
"03030303030303030303030303030303",
"03030303030303030303030303030303"
};
